# xmcd
#
# Track frame offsets: 
#        150
#        13951
#        17182
#        21461
#        55753
#        79797
#        94909
#        109441
#        121001
#        132573
#        147097
#
# Disc length: 2339 seconds
#
# Revision: 0
# Processed by: cddbd v1.5.1PL0 Copyright (c) Steve Scherf et al.
# Submitted via: ExactAudioCopy v0.95a4
#
DISCID=9809210b
DTITLE=Steve Miller Band - Children of the Future
DYEAR=1900
DGENRE=Rock
TTITLE0=Children of the Future
TTITLE1=Pushed Me to It
TTITLE2=You've Got the Power
TTITLE3=In My First Mind
TTITLE4=The Beauty of the Time Is That It's Snowing
TTITLE5=Baby's Callin' Me Home
TTITLE6=Steppin' Stone
TTITLE7=Roll With It
TTITLE8=Junior Saw It Happen
TTITLE9=Fanny Mae
TTITLE10=Key to the Highway
EXTD=
EXTT0=
EXTT1=
EXTT2=
EXTT3=
EXTT4=
EXTT5=
EXTT6=
EXTT7=
EXTT8=
EXTT9=
EXTT10=
PLAYORDER=
